<?xml version="1.0" standalone="no"?><!DOCTYPE svg PUBLIC "-//W3C//DTD SVG 1.1//EN" "http://www.w3.org/Graphics/SVG/1.1/DTD/svg11.dtd"><svg class="icon" width="48px" height="38.40px" viewBox="0 0 1280 1024" version="1.1" xmlns="http://www.w3.org/2000/svg"><path d="M342.271829 550.399725H38.399981C17.151991 550.399725 0 533.247733 0 511.999744s17.151991-38.399981 38.399981-38.399981h303.871848c21.247989 0 38.399981 17.151991 38.399981 38.399981s-17.151991 38.399981-38.399981 38.399981z" fill="#0FB4EB" /><path d="M216.319892 676.351662c-9.727995 0-19.71199-3.839998-27.135987-11.263995a38.143981 38.143981 0 0 1 0-54.271972L287.999856 511.999744l-98.815951-98.815951a38.143981 38.143981 0 0 1 0-54.271972 38.143981 38.143981 0 0 1 54.271973 0l125.951937 125.951937c15.103992 15.103992 15.103992 39.42398 0 54.271972l-125.951937 125.951937c-7.423996 7.679996-17.407991 11.263994-27.135986 11.263995z" fill="#0FB4EB" /><path d="M397.823801 1023.999488H332.799834C149.247925 1023.999488 0 874.751563 0 691.199654v-11.519994c0-21.247989 17.151991-38.399981 38.399981-38.399981s38.399981 17.151991 38.399981 38.399981V691.199654c0 141.055929 114.943943 255.999872 255.999872 255.999872h65.023967c18.175991 0 34.047983-12.799994 37.631981-30.719984l164.351918-793.599603c2.303999-11.263994-0.512-23.039988-7.935996-31.999984-7.167996-8.959996-18.175991-14.079993-29.695985-14.079993H332.799834C191.743904 76.799962 76.799962 191.743904 76.799962 332.799834v11.519994c0 21.247989-17.151991 38.399981-38.399981 38.399981S0 365.567817 0 344.319828V332.799834C0 149.247925 149.247925 0 332.799834 0h229.375885c34.815983 0 67.327966 15.359992 89.343955 42.495979s30.463985 61.951969 23.551988 95.999952l-164.351917 793.599603A115.609542 115.609542 0 0 1 397.823801 1023.999488z" fill="#424242" /><path d="M1014.015493 702.719649h-63.999968c-12.799994 0-23.295988 10.495995-23.295988 23.295988v44.543978c0 12.799994 10.495995 23.295988 23.295988 23.295988h63.999968c12.799994 0 23.295988-10.495995 23.295988-23.295988v-44.543978c0-12.799994-10.495995-23.295988-23.295988-23.295988z" fill="#424242" /><path d="M947.199526 0h-96.255951c-54.271973 0-101.887949 38.655981-112.895944 91.903954l-164.351918 793.599603c-7.167996 34.047983 1.535999 69.119965 23.551988 95.999952A114.380743 114.380743 0 0 0 686.591657 1023.999488H947.199526c183.551908 0 332.799834-149.247925 332.799834-332.799834V332.799834c0-183.551908-149.247925-332.799834-332.799834-332.799834z m141.31193 770.303615c0 40.95998-33.279983 74.495963-74.495963 74.495963h-63.999968c-40.95998 0-74.495963-33.279983-74.495963-74.495963v-44.543978c0-40.95998 33.279983-74.495963 74.495963-74.495963h63.999968c40.95998 0 74.495963 33.279983 74.495963 74.495963v44.543978z m-60.92797-150.271925h-88.831955c-15.615992 0-43.519978-6.399997-57.599972-23.807988-8.703996-11.007994-6.911997-27.135986 4.095998-36.095982 10.751995-8.703996 26.623987-6.911997 35.583983 3.583998 2.815999 2.047999 11.775994 5.119997 17.919991 5.119998h88.831955a9.727995 9.727995 0 1 0 0-19.455991h-91.135954c-33.535983 0-60.92797-27.391986-60.92797-60.927969 0-33.535983 27.391986-60.92797 60.92797-60.92797h88.831955c15.615992 0 43.775978 6.399997 57.599972 24.063988a25.599987 25.599987 0 0 1-4.095998 35.839982c-11.007994 8.703996-27.135986 6.911997-36.095982-4.095998-1.791999-1.279999-11.007994-4.607998-17.407992-4.607997h-88.831955a9.727995 9.727995 0 1 0 0 19.45599h91.135954c33.535983 0 60.92797 27.391986 60.92797 60.927969 0 33.535983-27.391986 60.92797-60.92797 60.92797zM1062.911469 230.399885h-33.535984v106.751946c0 36.351982-29.695985 66.047967-66.047967 66.047967-36.351982 0-66.047967-29.695985-66.047967-66.047967 0-14.079993 11.519994-25.599987 25.599988-25.599987s25.599987 11.519994 25.599987 25.599987a14.847993 14.847993 0 0 0 29.695985 0V230.399885H901.119549c-14.079993 0-25.599987-11.519994-25.599987-25.599987s11.519994-25.599987 25.599987-25.599988h161.79192c14.079993 0 25.599987 11.519994 25.599987 25.599988s-11.519994 25.599987-25.599987 25.599987z" fill="#424242" /></svg>