<svg width="40" height="40" xmlns="http://www.w3.org/2000/svg">
 <defs>
  <linearGradient y2="1.116703" x2="1.055538" y1="0.028111" x1="-0.033065" id="paint0_linear">
   <stop stop-color="#3BEA62" offset="0.15937"/>
   <stop stop-color="#3C99CC" offset="0.5404"/>
   <stop stop-color="#6B57FF" offset="0.93739"/>
  </linearGradient>
 </defs>
 <g>
  <title>background</title>
  <rect fill="none" id="canvas_background" height="402" width="582" y="-1" x="-1"/>
 </g>
 <g>
  <title>Layer 1</title>
  <path id="svg_1" fill="url(#paint0_linear)" d="m32.0845,7.94025l0,-3.94025l-8.0642,0l0,3.9896l-7.9913,0l0,-3.9896l-8.11347,0l0,3.94025l-3.91553,0l0,28.05975l12.0044,0l0,-3.9955c0.0014,-1.0588 0.423,-2.0737 1.1722,-2.8219c0.7492,-0.7481 1.7646,-1.1683 2.8234,-1.1683c1.0588,0 2.0743,0.4202 2.8234,1.1683c0.7492,0.7482 1.1708,1.7631 1.1722,2.8219l0,3.9955l12.0044,0l0,-28.05975l-3.9155,0z"/>
  <text font-weight="bold" transform="matrix(0.19894894967097798,0,0,0.27565105273799323,5.1389975610398135,1.7835418867834931) " xml:space="preserve" text-anchor="start" font-family="Georgia, Times, 'Times New Roman', serif" font-size="24" id="svg_2" y="53.146041" x="4.820876" stroke-width="0" fill="url(#paint0_linear)">JSON</text>
  <text font-weight="bold" transform="matrix(0.19894894967097798,0,0,0.27565105273799323,5.1389975610398135,1.7835418867834931) " xml:space="preserve" text-anchor="start" font-family="Georgia, Times, 'Times New Roman', serif" font-size="24" id="svg_3" y="88.100391" x="84.809367" stroke-width="0" fill="url(#paint0_linear)">Dart</text>
 </g>
</svg>